# xmcd
#
# Track frame offsets: 
#        150
#        12738
#        28573
#        42484
#        59808
#        74163
#        91510
#        104723
#        117532
#        132855
#        145336
#        165741
#        178905
#
# Disc length: 2606 seconds
#
# Revision: 0
# Processed by: cddbd v1.5.2PL0 Copyright (c) Steve Scherf et al.
# Submitted via: ExactAudioCopy v0.99pb5
#
DISCID=cc0a2c0d
DTITLE=William Fitzsimmons - The Sparrow and the Crow
DYEAR=2009
DGENRE=Acoustic
TTITLE0=After Afterall
TTITLE1=I Don't Feel It Anymore (Song of the Sparrow)
TTITLE2=We Feel Alone
TTITLE3=If You Would Come Back Home
TTITLE4=Please Forgive Me (Song of the Crow)
TTITLE5=Further From You
TTITLE6=Just Not Each Other
TTITLE7=Even Now
TTITLE8=You Still Hurt Me
TTITLE9=They'll Never Take The Good Years
TTITLE10=Find Me To Forgive
TTITLE11=Goodmorning
TTITLE12=Maybe Be Alright
EXTD=
EXTT0=
EXTT1=
EXTT2=
EXTT3=
EXTT4=
EXTT5=
EXTT6=
EXTT7=
EXTT8=
EXTT9=
EXTT10=
EXTT11=
EXTT12=
PLAYORDER=
